<?xml version="1.0" encoding="UTF-8" standalone="no"?>
<!DOCTYPE svg PUBLIC "-//W3C//DTD SVG 1.1//EN" "http://www.w3.org/Graphics/SVG/1.1/DTD/svg11.dtd">
<svg width="100%" height="100%" viewBox="0 0 1024 1024" version="1.1" xmlns="http://www.w3.org/2000/svg" xmlns:xlink="http://www.w3.org/1999/xlink" xml:space="preserve" xmlns:serif="http://www.serif.com/" style="fill-rule:evenodd;clip-rule:evenodd;stroke-linejoin:round;stroke-miterlimit:2;">
    <path d="M1024,256L1024,768C1024,909.29 909.29,1024 768,1024L256,1024C114.71,1024 0,909.29 0,768L0,256C0,114.71 114.71,0 256,0L768,0C909.29,0 1024,114.71 1024,256Z" style="fill:url(#_Linear1);"/>
    <g transform="matrix(1.55308,0,0,1.55308,512,512)">
        <g transform="matrix(1,0,0,1,-512,-512)">
            <path id="path2" d="M515.898,389.594C504.409,388.847 470.707,395.773 467.774,406.931C464.289,415.008 472.482,423.932 487.074,420.349C499.409,414.91 528.717,407.844 551.283,427.348C562.357,436.918 570.766,464.162 570.283,485.232C569.755,508.307 564.903,530.966 558.756,553.322C547.276,595.069 525.818,630.121 491.705,657.238C476.233,669.537 459.122,679.158 442.197,689.135C435.549,693.054 433.416,699.917 436.836,706.119C439.946,711.759 446.697,713.661 453.289,710.41C458.211,707.983 462.936,705.153 467.725,702.459C509.912,678.728 543.516,645.982 565.014,602.723C586.937,558.608 597.171,511.312 593.195,461.682C592.236,449.708 589.075,438.04 582.818,427.582C567.714,402.334 545.381,389.751 515.898,389.594L515.898,389.594ZM444.383,430.977C439.279,436.378 435.045,460.761 433.668,476.455C432.827,486.041 432.519,495.747 429.82,505.025C422.26,531.019 405.971,549.943 382.322,562.824C374.094,567.306 365.131,570.031 356.725,574.045C350.477,577.028 347.974,582.852 349.746,589.453C351.19,594.832 356.357,597.961 363.104,597.266C365.215,597.048 367.321,596.344 369.322,595.58C377.909,592.302 385.817,587.639 393.889,583.316C423.859,567.266 444.2,543.392 453.158,510.291C457.265,495.118 457.646,479.435 459.293,463.939C460.092,456.415 463.369,447.776 465.214,440.918C466.497,427.021 452.253,423.375 444.383,430.977Z" style="fill:rgb(0,0,177);fill-rule:nonzero;"/>
            <path id="path3" d="M586.535,393.498C590.149,398.727 599.607,415.339 604.711,427.04C615.435,451.623 618.706,476.441 616.25,502.521C615.487,510.625 614.279,518.715 614.707,526.885C615.026,532.977 619.61,537.774 625.301,538.297C630.568,538.781 635.571,535.21 637.223,529.613C637.783,527.715 638.121,525.721 638.297,523.746C638.755,518.618 638.902,513.457 639.465,508.342C640.705,487.984 640.967,465.385 637.879,448.993C635.152,434.524 618.924,394.611 607.838,382.705C595.127,369.056 579.724,383.368 586.535,393.498ZM557.296,373.148C569.147,373.017 571.136,356.764 561.802,352.303C556.41,349.727 521.933,338.852 495.041,342.828C439.331,351.064 391.275,394.296 386.512,463.25C385.907,472.006 386.409,480.971 384.07,489.516C378.964,508.176 365.978,519.183 348.258,525.441C339.132,528.665 337.45,531.34 337.842,541.408C341.295,548.984 346.018,551.277 353.66,549.166C387.86,539.719 404.293,516.278 409.361,484.002C410.962,473.809 410.422,463.454 412.209,453.248C422.186,396.279 472.221,359.174 529.609,366.484C542.939,368.182 549.595,373.323 557.296,373.148Z" style="fill:rgb(0,1,203);fill-rule:nonzero;"/>
            <g id="g13">
                <g id="Clip">
                    <path id="path13" d="M506.26,291.408C498.25,291.752 490.267,292.637 482.377,294.072C432.386,303.164 393.578,330.296 365.387,372.488C360.399,379.953 355.995,387.861 353.283,396.516C351.639,401.764 353.805,407.222 358.268,410.01C363.109,413.034 367.878,412.543 372.398,408.518C375.054,406.153 377.018,403.296 378.379,400.008C384.388,385.488 393.331,372.952 404.527,361.527C415.226,351.14 426.673,342.261 439.383,335.184C460.772,323.274 482.986,316.624 505.936,315.451C511.789,315.152 517.691,315.208 523.639,315.625C532.113,316.219 540.681,317.544 549.34,319.609C579.458,326.794 606.092,340.398 626.469,364.584C648.9,391.208 663.078,421.374 664.41,456.492C665.268,479.118 664.805,501.808 664.379,524.459C664.289,529.22 663.693,534.059 663.816,538.861C663.941,543.705 665.461,548.058 669.926,550.75C678.641,556.004 688.28,549.971 688.309,539.09C688.381,511.265 688.377,483.44 688.268,455.615C688.249,450.808 687.869,445.955 687.127,441.205C683.103,415.436 674.516,391.517 660.254,369.385C628.967,320.831 576.477,294.197 523.024,291.475C517.438,291.19 511.843,291.168 506.26,291.408L506.26,291.408Z" style="fill:rgb(1,0,203);fill-rule:nonzero;"/>
                </g>
            </g>
            <path id="path6" d="M580.764,675.165C575.985,673.263 572.721,674.833 570.002,678.434C555.607,697.494 536.776,711.381 516.795,723.911C512.179,726.806 507.497,727.268 502.74,724.175C498.651,721.517 497.335,717.634 497.681,712.986C497.951,709.362 499.892,706.796 502.87,704.932C508.791,701.224 514.913,697.806 520.628,693.805C535.231,683.58 546.928,670.392 557.868,656.471C564.706,647.77 572.335,645.211 582.479,649.473C596.951,655.555 610.142,664.033 622.662,673.454C627.215,676.879 627.875,684.412 624.747,688.858C621.517,693.449 614.322,694.922 609.027,691.8C603.296,688.421 597.768,684.698 592.062,681.275C588.503,679.14 584.777,677.282 580.764,675.165Z" style="fill:rgb(2,0,203);fill-rule:nonzero;"/>
            <path id="path8" d="M661.404,608.182C647.159,604.93 634.32,599.675 623.588,590.136C615.474,582.924 609.261,574.343 606.234,563.801C603.625,554.716 609.451,546.548 618.131,546.604C622.426,546.632 625.74,548.392 627.207,552.367C634.013,570.816 648.022,580.056 666.533,583.91C672.104,585.07 675.977,589.918 676.32,595.184C676.72,601.317 674.221,605.594 669.225,607.648C666.787,608.651 664.311,608.243 661.404,608.182Z" style="fill:rgb(1,0,203);fill-rule:nonzero;"/>
            <path id="path9" d="M620.212,643.939C609.979,639.771 600.719,634.525 591.601,629.066C586.171,625.814 584.491,620.76 586.266,615.406C587.943,610.352 591.358,608.464 598.118,608.634C600.512,608.694 602.809,609.207 604.837,610.277C619.103,617.81 633.659,624.583 649.085,629.516C655.153,631.456 657.958,637.748 656.371,643.07C654.777,648.412 647.966,652.117 641.312,650.941C634.086,649.663 627.255,647.052 620.212,643.939Z" style="fill:rgb(2,0,203);fill-rule:nonzero;"/>
            <path id="path10" d="M365.349,446.084C365.423,453.248 362.987,459.554 362.181,466.144C361.234,473.895 360.092,481.604 360.329,489.439C360.441,493.148 359.106,496.383 356.565,498.923C353.662,501.826 350.205,503.844 345.833,502.441C340.548,500.745 338.419,496.565 337.729,491.482C335.573,475.601 338.224,460.051 341.181,444.543C341.744,441.591 342.927,438.821 345.055,436.56C348.037,433.39 351.469,431.016 356.027,432.01C360.882,433.069 363.693,436.472 364.874,441.193C365.232,442.623 365.201,444.15 365.349,446.084Z" style="fill:rgb(0,1,255);fill-rule:nonzero;"/>
            <path id="path39" d="M403.096,677.858C397.7,675.678 395.535,666.525 399.286,661.755C400.343,660.413 408.298,655.797 418.609,650.544C445.48,636.855 460.07,626.803 474.94,611.732C498.924,587.426 513.8,556.78 520.286,518.315C522.966,502.424 524.959,483.115 524.477,477.715C523.558,467.416 517.373,460.486 511.196,462.834C507.547,464.222 506.381,468.377 505.469,483.242C503.217,519.993 490.278,553.866 467.717,582.074C450.877,603.129 431.209,617.506 398.5,632.671C382.808,639.945 378.456,641.29 375.482,639.783C370.294,637.153 367.994,628.996 370.9,623.531C372.642,620.254 373.343,619.833 390.471,611.774C420.417,597.684 441.722,579.705 458.276,554.557C473.13,531.991 480.784,507.814 482.652,477.56C483.612,462.005 484.793,457.053 488.892,451.394C494.05,444.275 499.671,440.727 508.328,439.126C525.564,435.94 541.506,448.382 546.331,468.785C547.921,475.507 547.602,487.386 545.35,505.419C541.119,539.285 536.383,557.136 526.276,577.318C506.678,616.45 472.976,648.574 427.364,671.598C415.438,677.618 412.616,678.71 409.104,678.662C406.819,678.632 404.116,678.27 403.096,677.858Z" style="fill:rgb(1,0,120);fill-rule:nonzero;"/>
        </g>
    </g>
    <g>
        <g transform="matrix(0.849155,-0.549892,0.624281,0.964029,-228.651123,223.306674)">
            <path d="M598.59,445.543C650.341,575.431 701.688,705.895 752.253,835.966C768.822,878.589 731.065,902.777 665.724,887.861C587.863,870.038 510.002,852.215 432.141,834.391C367.709,819.601 301.648,771.944 284.846,729.106C233.882,599.171 182.131,468.838 129.974,339.074C112.958,296.738 149.875,272.589 215.469,287.515C293.612,305.247 371.755,322.978 449.898,340.71C514.7,355.373 581.533,402.732 598.59,445.543ZM564.267,448.051C550.057,412.388 494.358,372.796 440.211,360.533C374.998,345.73 309.785,330.926 244.572,316.123C189.801,303.661 158.995,323.89 173.157,359.176C222.221,481.42 270.963,604.264 318.97,726.662C332.97,762.355 388.093,802.168 441.966,814.524C506.964,829.397 571.962,844.27 636.961,859.143C691.67,871.632 722.91,851.242 709.129,815.846C661.437,693.342 613.013,570.395 564.267,448.051Z" style="fill:rgb(66,0,22);"/>
        </g>
        <g transform="matrix(0.849155,-0.549892,0.624281,0.964029,-228.651123,208.717188)">
            <path d="M598.59,445.543C650.341,575.431 701.688,705.895 752.253,835.966C768.822,878.589 731.065,902.777 665.724,887.861C587.863,870.038 510.002,852.215 432.141,834.391C367.709,819.601 301.648,771.944 284.846,729.106C233.882,599.171 182.131,468.838 129.974,339.074C112.958,296.738 149.875,272.589 215.469,287.515C293.612,305.247 371.755,322.978 449.898,340.71C514.7,355.373 581.533,402.732 598.59,445.543ZM564.267,448.051C550.057,412.388 494.358,372.796 440.211,360.533C374.998,345.73 309.785,330.926 244.572,316.123C189.801,303.661 158.995,323.89 173.157,359.176C222.221,481.42 270.963,604.264 318.97,726.662C332.97,762.355 388.093,802.168 441.966,814.524C506.964,829.397 571.962,844.27 636.961,859.143C691.67,871.632 722.91,851.242 709.129,815.846C661.437,693.342 613.013,570.395 564.267,448.051Z" style="fill:rgb(103,0,34);"/>
        </g>
        <g transform="matrix(0.849155,-0.549892,0.624281,0.964029,-228.697346,182.273732)">
            <path d="M592.965,453.162C644.749,583.04 696.128,713.493 746.725,843.554C763.304,886.172 725.545,910.362 660.185,895.452C582.304,877.635 504.423,859.818 426.543,842.002C362.094,827.216 296.01,779.567 279.198,736.732C228.201,606.807 176.418,476.485 124.23,346.732C107.203,304.4 144.123,280.248 209.735,295.169C287.898,312.895 366.061,330.62 444.224,348.345C509.043,363.003 575.897,410.354 592.965,453.162ZM558.635,455.672C544.416,420.012 488.699,380.426 434.538,368.168C369.308,353.37 304.078,338.572 238.848,323.774C184.063,311.316 153.254,331.548 167.425,366.829C216.52,489.064 265.292,611.898 313.329,734.286C327.337,769.976 382.479,809.783 436.366,822.134C501.381,837.002 566.396,851.87 631.411,866.737C686.135,879.222 717.377,858.83 703.589,823.437C655.866,700.944 607.412,578.007 558.635,455.672Z" style="fill:url(#_Linear2);"/>
        </g>
    </g>
    <g transform="matrix(0.999947,0.01032,-0.01032,0.999947,-0.710368,-0.069023)">
        <g transform="matrix(0.965266,-0.326993,0.249066,0.735229,-88.827739,194.998707)">
            <path d="M364.883,378.792C364.883,386.09 360.37,392.014 354.812,392.014L257.326,392.014C251.768,392.014 247.255,386.09 247.255,378.792C247.255,371.495 251.768,365.571 257.326,365.571L354.812,365.571C360.37,365.571 364.883,371.495 364.883,378.792Z" style="fill:rgb(66,0,22);"/>
        </g>
        <g transform="matrix(0.965266,-0.326993,0.249066,0.735229,-88.827739,180.537417)">
            <path d="M364.883,378.792C364.883,386.09 360.37,392.014 354.812,392.014L257.326,392.014C251.768,392.014 247.255,386.09 247.255,378.792C247.255,371.495 251.768,365.571 257.326,365.571L354.812,365.571C360.37,365.571 364.883,371.495 364.883,378.792Z" style="fill:rgb(103,0,34);"/>
        </g>
        <g transform="matrix(0.965266,-0.326993,0.249066,0.735229,-88.827739,165.179224)">
            <path d="M364.883,378.792C364.883,386.09 360.37,392.014 354.812,392.014L257.326,392.014C251.768,392.014 247.255,386.09 247.255,378.792C247.255,371.495 251.768,365.571 257.326,365.571L354.812,365.571C360.37,365.571 364.883,371.495 364.883,378.792Z" style="fill:rgb(181,0,58);"/>
        </g>
    </g>
    <g>
        <g transform="matrix(1.55308,0,0,1.55308,512,512)">
            <g transform="matrix(1,0,0,1,-512,-512)">
                <path id="path21" serif:id="path2" d="M433.098,483.574C433.285,481.199 433.46,478.824 433.668,476.455C435.045,460.761 439.279,436.378 444.383,430.977C452.253,423.375 466.497,427.021 465.214,440.918C463.369,447.776 460.092,456.415 459.293,463.939C457.997,476.134 457.485,488.444 455.324,500.531L433.098,483.574ZM551.94,574.244C554.516,567.472 556.783,560.496 558.756,553.322C564.903,530.966 569.755,508.307 570.283,485.232C570.766,464.162 562.357,436.918 551.283,427.348C528.717,407.844 499.409,414.91 487.074,420.349C472.482,423.932 464.289,415.008 467.774,406.931C470.707,395.773 504.409,388.847 515.898,389.594C545.381,389.751 567.714,402.334 582.818,427.582C589.075,438.04 592.236,449.708 593.195,461.682C596.764,506.23 588.884,548.899 571.377,589.073L551.94,574.244Z" style="fill:rgb(0,0,177);"/>
                <path id="path31" serif:id="path3" d="M386.711,460.674C392.479,393.22 440.028,350.961 495.041,342.828C521.933,338.852 556.41,349.727 561.802,352.303C571.136,356.764 569.147,373.017 557.296,373.148C549.595,373.323 542.939,368.182 529.609,366.484C472.221,359.174 422.186,396.279 412.209,453.248C411.347,458.172 411.026,463.13 410.746,468.087C403.082,464.203 394.95,461.748 386.711,460.674ZM586.535,393.498C579.724,383.368 595.127,369.056 607.838,382.705C618.924,394.611 635.152,434.524 637.879,448.993C640.967,465.385 640.705,487.984 639.465,508.342C638.902,513.457 638.755,518.618 638.297,523.746C638.121,525.721 637.783,527.715 637.223,529.613C635.571,535.21 630.568,538.781 625.301,538.297C619.61,537.774 615.026,532.977 614.707,526.885C614.279,518.715 615.487,510.625 616.25,502.521C618.706,476.441 615.435,451.623 604.711,427.04C599.607,415.339 590.149,398.727 586.535,393.498Z" style="fill:rgb(1,0,203);"/>
                <g id="g131" serif:id="g13">
                    <g id="Clip1" serif:id="Clip">
                        <path id="path131" serif:id="path13" d="M506.26,291.408C498.25,291.752 490.267,292.637 482.377,294.072C432.386,303.164 393.578,330.296 365.387,372.488C360.399,379.953 355.995,387.861 353.283,396.516C351.639,401.764 353.805,407.222 358.268,410.01C363.109,413.034 367.878,412.543 372.398,408.518C375.054,406.153 377.018,403.296 378.379,400.008C384.388,385.488 393.331,372.952 404.527,361.527C415.226,351.14 426.673,342.261 439.383,335.184C460.772,323.274 482.986,316.624 505.936,315.451C511.789,315.152 517.691,315.208 523.639,315.625C532.113,316.219 540.681,317.544 549.34,319.609C579.458,326.794 606.092,340.398 626.469,364.584C648.9,391.208 663.078,421.374 664.41,456.492C665.268,479.118 664.805,501.808 664.379,524.459C664.289,529.22 663.693,534.059 663.816,538.861C663.941,543.705 665.461,548.058 669.926,550.75C678.641,556.004 688.28,549.971 688.309,539.09C688.381,511.265 688.377,483.44 688.268,455.615C688.249,450.808 687.869,445.955 687.127,441.205C683.103,415.436 674.516,391.517 660.254,369.385C628.967,320.831 576.477,294.197 523.024,291.475C517.438,291.19 511.843,291.168 506.26,291.408L506.26,291.408Z" style="fill:rgb(0,1,255);fill-rule:nonzero;"/>
                    </g>
                </g>
                <path id="path81" serif:id="path8" d="M661.404,608.182C647.159,604.93 634.32,599.675 623.588,590.136C615.474,582.924 609.261,574.343 606.234,563.801C603.625,554.716 609.451,546.548 618.131,546.604C622.426,546.632 625.74,548.392 627.207,552.367C634.013,570.816 648.022,580.056 666.533,583.91C672.104,585.07 675.977,589.918 676.32,595.184C676.72,601.317 674.221,605.594 669.225,607.648C666.787,608.651 664.311,608.243 661.404,608.182Z" style="fill:rgb(0,1,203);fill-rule:nonzero;"/>
                <path id="path91" serif:id="path9" d="M620.212,643.939C609.979,639.771 600.719,634.525 591.601,629.066C586.171,625.814 584.491,620.76 586.266,615.406C587.943,610.352 591.358,608.464 598.118,608.634C600.512,608.694 602.809,609.207 604.837,610.277C619.103,617.81 633.659,624.583 649.085,629.516C655.153,631.456 657.958,637.748 656.371,643.07C654.777,648.412 647.966,652.117 641.312,650.941C634.086,649.663 627.255,647.052 620.212,643.939Z" style="fill:rgb(0,1,203);fill-rule:nonzero;"/>
                <path id="path391" serif:id="path39" d="M476.115,516.393C479.649,504.469 481.78,491.676 482.652,477.56C483.612,462.005 484.793,457.053 488.892,451.394C494.05,444.275 499.671,440.727 508.328,439.126C525.564,435.94 541.506,448.382 546.331,468.785C547.921,475.507 547.602,487.386 545.35,505.419C542.317,529.693 539.025,545.74 533.682,560.314L513.974,545.278C516.592,536.748 518.692,527.767 520.286,518.315C522.966,502.424 524.959,483.115 524.477,477.715C523.558,467.416 517.373,460.486 511.196,462.834C507.547,464.222 506.381,468.377 505.469,483.242C504.443,499.992 501.196,516.144 495.83,531.435L476.115,516.393Z" style="fill:rgb(0,0,120);"/>
            </g>
        </g>
        <g transform="matrix(1.55308,0,0,1.55308,512,512)">
            <g transform="matrix(1,0,0,1,-512,-512)">
                <path id="path101" serif:id="path10" d="M365.349,446.084C365.423,453.248 362.987,459.554 362.181,466.144C361.234,473.895 360.092,481.604 360.329,489.439C360.441,493.148 359.106,496.383 356.565,498.923C353.662,501.826 350.205,503.844 345.833,502.441C340.548,500.745 338.419,496.565 337.729,491.482C335.573,475.601 338.224,460.051 341.181,444.543C341.744,441.591 342.927,438.821 345.055,436.56C348.037,433.39 351.469,431.016 356.027,432.01C360.882,433.069 363.693,436.472 364.874,441.193C365.232,442.623 365.201,444.15 365.349,446.084Z" style="fill:rgb(2,0,255);fill-rule:nonzero;"/>
            </g>
        </g>
    </g>
    <defs>
        <linearGradient id="_Linear1" x1="0" y1="0" x2="1" y2="0" gradientUnits="userSpaceOnUse" gradientTransform="matrix(1024,1024,-1024,1024,0,0)"><stop offset="0" style="stop-color:rgb(13,0,4);stop-opacity:1"/><stop offset="1" style="stop-color:black;stop-opacity:1"/></linearGradient>
        <linearGradient id="_Linear2" x1="0" y1="0" x2="1" y2="0" gradientUnits="userSpaceOnUse" gradientTransform="matrix(849.615601,484.629001,-550.190027,748.374815,12.590556,349.211134)"><stop offset="0" style="stop-color:rgb(180,0,60);stop-opacity:1"/><stop offset="1" style="stop-color:rgb(186,0,50);stop-opacity:1"/></linearGradient>
    </defs>
</svg>
